<?xml version="1.0" standalone="no"?>
<!DOCTYPE svg PUBLIC "-//W3C//DTD SVG 20010904//EN"
 "http://www.w3.org/TR/2001/REC-SVG-20010904/DTD/svg10.dtd">
<svg version="1.0" xmlns="http://www.w3.org/2000/svg"
 width="736.000000pt" height="202.000000pt" viewBox="0 0 736.000000 202.000000"
 preserveAspectRatio="xMidYMid meet">

<g transform="translate(0.000000,202.000000) scale(0.100000,-0.100000)"
fill="#000000" stroke="none">
<path d="M0 1010 l0 -1010 3680 0 3680 0 0 1010 0 1010 -3680 0 -3680 0 0
-1010z m2684 891 c11 -66 -2 -109 -28 -94 -6 3 -7 2 -3 -3 5 -5 13 -9 18 -9 5
0 8 -4 7 -10 -4 -14 -178 -15 -179 -1 -6 45 -4 98 4 103 5 3 4 9 -3 13 -28 17
3 26 89 26 89 0 90 0 95 -25z m224 -27 c3 -39 -1 -55 -15 -70 -17 -16 -17 -17
0 -11 11 4 17 2 17 -7 0 -11 -20 -14 -94 -13 l-93 0 0 56 c0 31 5 59 11 63 8
5 7 8 -1 8 -7 0 -13 6 -13 13 0 11 22 13 92 13 l93 -1 3 -51z m-2618 -425 c0
-200 -2 -230 -15 -225 -8 3 -18 -1 -22 -8 -5 -7 -15 -15 -23 -18 -10 -3 -8 -6
8 -10 15 -4 22 -2 22 8 0 8 7 14 15 14 17 0 17 -40 0 -52 -6 -5 -6 -8 2 -8 8
0 12 -40 12 -134 1 -119 0 -136 -16 -146 -17 -11 -17 -11 0 -6 10 3 17 0 17
-8 0 -11 -20 -14 -94 -13 l-93 0 1 51 c0 28 5 57 10 65 6 10 6 12 -2 7 -9 -5
-12 10 -12 54 l0 61 31 -5 c30 -4 30 -4 12 13 -12 13 -22 15 -31 9 -8 -8 -12
-6 -12 6 0 9 5 16 11 16 8 0 8 4 1 13 -6 7 -11 112 -12 280 l-1 267 96 0 95 0
0 -231z m553 216 c4 -6 10 -5 15 3 6 9 26 12 58 10 l49 -3 2 -189 c2 -190 -4
-230 -32 -220 -10 4 -15 0 -15 -16 0 -14 4 -19 13 -13 36 23 38 17 36 -181 0
-106 -4 -198 -8 -204 -5 -9 -58 -10 -68 -1 -2 1 -7 2 -12 3 -23 3 -21 16 3 27
15 7 25 17 23 23 -2 6 7 19 20 29 24 19 30 37 13 37 -5 0 -10 -6 -10 -12 0
-19 -55 -47 -71 -37 -11 7 -10 11 6 23 23 18 17 20 -20 6 -20 -8 -25 -15 -20
-30 4 -11 2 -20 -4 -20 -15 0 -14 -27 2 -33 6 -2 9 -7 5 -11 -3 -4 -15 -2 -27
5 -19 13 -20 22 -21 270 0 187 3 258 11 261 9 3 9 9 1 25 -12 22 -1 26 26 10
6 -5 12 -6 12 -3 0 2 3 12 7 22 5 13 3 16 -10 11 -21 -8 -22 3 -2 29 19 25 19
35 0 28 -8 -4 -15 -12 -15 -19 0 -7 -7 -18 -15 -25 -13 -11 -15 -8 -15 14 0
14 5 26 11 26 8 0 8 5 -1 15 -10 12 -9 16 4 21 19 7 22 34 4 34 -8 0 -6 6 4
17 14 13 20 14 32 3 14 -10 16 -9 16 8 0 40 -10 52 -35 40 -15 -7 -21 -16 -18
-29 3 -10 0 -19 -6 -19 -6 0 -11 17 -11 41 0 38 1 40 28 37 15 -1 30 -7 35
-13z m237 3 c0 -10 2 -10 8 -1 5 8 53 12 155 12 l147 0 0 -79 0 -80 -195 0
-195 1 0 79 0 80 40 0 c25 0 40 -5 40 -12z m550 -239 c0 -197 -3 -249 -12
-243 -10 6 -10 5 0 -8 8 -10 12 -56 11 -151 0 -114 -3 -140 -17 -154 -16 -16
-16 -16 1 -10 11 4 17 2 17 -8 0 -11 -19 -14 -94 -12 l-94 1 -1 119 c0 104 2
118 15 113 23 -9 36 3 21 19 -8 9 -16 10 -24 3 -9 -7 -12 57 -13 286 l0 296
95 0 95 0 0 -251z m211 240 c19 -9 20 -21 19 -226 -1 -204 -8 -263 -32 -263
-5 0 -6 -5 -3 -10 5 -8 11 -7 21 1 12 10 14 -13 14 -158 l0 -170 -96 -2 c-104
-1 -100 -4 -79 54 5 16 5 17 -4 5 -8 -11 -11 26 -11 138 0 128 2 152 15 152 9
0 15 9 15 22 0 21 0 21 -14 2 -13 -17 -15 5 -15 189 -1 153 2 207 11 207 9 0
9 3 0 12 -7 7 -12 22 -12 35 0 22 3 23 76 23 41 0 84 -5 95 -11z m298 0 c116
-24 184 -121 185 -258 0 -88 -21 -145 -75 -203 -47 -52 -103 -69 -241 -75
l-118 -6 0 83 0 82 78 -3 c44 -2 85 0 91 6 63 51 71 63 71 113 0 35 -6 57 -21
75 -22 29 -82 50 -133 46 -88 -6 -86 -7 -86 76 l0 75 100 0 c54 0 122 -5 149
-11z m821 -396 c79 -225 145 -414 148 -420 3 -10 -22 -13 -104 -13 l-109 0
-25 88 -26 87 -117 3 c-64 1 -117 5 -117 9 0 3 9 37 20 74 l21 69 69 0 c39 0
70 4 70 10 0 8 -62 234 -77 280 -3 8 -16 -25 -30 -75 -13 -49 -49 -173 -80
-275 -31 -102 -60 -204 -66 -227 l-10 -43 -88 0 -87 0 0 55 c0 33 5 55 12 55
8 0 8 2 0 8 -13 8 33 165 46 157 4 -3 6 4 3 15 -4 14 -1 19 8 17 8 -2 11 -2 7
0 -12 7 -9 33 3 33 6 0 9 6 6 13 -2 6 9 48 24 92 68 200 118 342 128 368 l11
27 108 0 108 0 144 -407z m565 397 c-3 -5 -1 -11 4 -14 5 -3 11 1 15 9 3 8 13
15 23 14 16 0 16 -1 -2 -9 -11 -5 -14 -9 -7 -9 6 -1 12 -7 12 -15 0 -8 5 -18
12 -22 7 -5 9 -2 5 9 -5 13 -2 14 16 8 19 -7 22 -17 25 -69 l3 -60 -95 -1
c-102 -1 -126 4 -126 25 0 8 -10 14 -22 13 -13 0 -17 -3 -10 -6 6 -2 12 -11
12 -19 0 -12 -29 -14 -184 -13 -185 1 -215 6 -200 30 4 8 9 22 9 31 2 22 16
37 22 23 10 -26 21 -35 37 -29 14 5 15 9 4 15 -11 7 -10 10 1 21 11 10 14 10
18 1 3 -7 8 -13 13 -13 5 0 7 6 6 13 -3 25 -18 38 -36 32 -10 -3 -21 -1 -25 5
-5 8 -11 8 -21 -1 -8 -6 -17 -9 -20 -6 -7 7 15 31 36 39 26 10 481 8 475 -2z
m105 -6 c0 -9 -7 -14 -17 -12 -25 5 -28 28 -4 28 12 0 21 -6 21 -16z m110 6
c0 -6 -12 -15 -26 -20 -19 -8 -24 -15 -19 -30 5 -14 2 -20 -9 -20 -18 0 -19 4
-10 49 6 26 11 31 35 31 16 0 29 -5 29 -10z m128 -34 c2 -25 0 -36 -7 -31 -6
3 -11 2 -11 -4 0 -5 4 -12 9 -15 12 -8 13 -266 0 -297 -10 -26 -31 -31 -58
-14 -8 5 -6 -3 5 -17 10 -14 21 -23 24 -19 3 4 12 7 20 6 13 0 15 -29 16 -193
0 -127 -3 -195 -10 -200 -6 -4 -24 -7 -39 -8 -22 -1 -27 2 -22 14 4 12 3 12
-9 3 -9 -8 -16 -8 -20 -2 -4 6 4 15 16 22 30 16 29 14 22 33 -5 13 -9 14 -21
5 -11 -9 -17 -9 -26 0 -9 9 -9 14 3 21 21 13 9 19 -18 9 -18 -7 -22 -14 -17
-29 4 -11 2 -20 -4 -20 -6 0 -11 -7 -11 -15 0 -8 5 -15 10 -15 6 0 10 -4 10
-10 0 -15 -19 -12 -36 5 -19 19 -30 80 -15 89 7 4 7 15 1 31 -5 14 -9 110 -9
214 1 157 3 191 16 195 8 3 11 10 8 16 -11 18 6 32 23 18 12 -10 14 -10 8 0
-4 6 -3 12 3 12 19 0 22 -20 6 -36 -23 -23 -11 -29 19 -9 31 21 33 35 6 42
-11 3 -20 10 -20 15 0 6 -7 8 -15 4 -20 -7 -19 18 1 39 9 9 15 18 12 20 -6 6
-22 -8 -33 -28 -5 -10 -14 -19 -20 -19 -16 1 -17 19 -1 35 12 12 13 17 3 21
-9 3 -7 9 6 19 20 17 22 34 5 39 -8 3 -4 9 10 17 14 7 22 8 22 1 0 -5 5 -10
11 -10 7 0 9 12 7 32 -7 46 8 58 67 55 l50 -2 3 -39z m422 -36 l0 -79 -195 0
-195 0 0 79 0 79 195 0 195 -1 0 -78z m110 70 c0 -6 -11 -15 -24 -21 -16 -8
-22 -17 -19 -30 3 -10 0 -19 -6 -19 -6 0 -11 17 -11 40 0 38 2 40 30 40 17 0
30 -5 30 -10z m129 -183 c0 -188 -5 -222 -31 -222 -7 0 -14 -8 -16 -19 -3 -13
0 -16 10 -10 38 24 39 19 36 -189 l-3 -202 -33 0 c-19 -1 -36 3 -38 7 -3 5 -9
6 -14 3 -5 -3 -11 -1 -15 4 -3 6 5 15 17 22 30 16 29 14 22 33 -4 11 -10 13
-18 7 -8 -6 -17 -6 -26 0 -12 8 -12 12 -2 16 6 2 10 9 6 14 -9 15 -46 -11 -40
-28 4 -9 1 -22 -6 -30 -9 -11 -9 -16 2 -23 8 -5 12 -12 8 -15 -3 -4 -15 -1
-27 6 -19 13 -20 22 -21 270 0 199 3 258 12 262 10 4 11 7 1 18 -19 19 -16 25
16 27 30 2 55 -18 33 -26 -7 -2 -12 -12 -12 -23 0 -10 -4 -19 -10 -19 -5 0
-10 -7 -10 -15 0 -8 2 -15 4 -15 2 0 11 -2 19 -5 10 -5 13 2 9 27 -2 18 -1 30
3 26 11 -11 38 21 31 37 -3 8 -12 15 -21 15 -8 0 -15 5 -15 11 0 6 -7 9 -15 5
-19 -7 -19 5 0 30 19 25 19 35 0 28 -8 -4 -15 -12 -15 -19 0 -7 -7 -18 -15
-25 -13 -11 -15 -8 -15 14 0 14 5 26 11 26 8 0 8 5 -1 15 -10 12 -9 16 4 21
19 7 22 34 4 34 -8 0 -5 7 6 15 15 12 22 12 34 2 13 -10 14 -7 10 23 -7 46 8
59 69 60 l52 0 0 -193z m560 -202 c-1 -354 -3 -397 -17 -412 -16 -16 -16 -16
1 -10 11 4 17 2 17 -8 0 -12 -18 -14 -94 -13 l-94 1 -1 118 0 119 25 0 c23 0
24 1 10 16 -9 8 -20 13 -25 9 -6 -3 -10 102 -11 285 l0 290 95 0 95 0 -1 -395z
m221 385 c13 -8 15 -46 17 -230 0 -121 -2 -220 -7 -220 -4 0 -10 -9 -13 -21
-4 -16 -10 -19 -29 -14 -22 7 -23 7 -3 -8 12 -10 24 -12 30 -6 5 5 13 9 17 9
5 0 8 -76 7 -169 l-1 -169 -97 1 c-80 2 -95 5 -92 17 13 53 13 55 2 40 -8 -11
-11 26 -11 138 0 128 2 152 15 152 9 0 15 9 14 23 -1 16 -2 18 -6 5 -2 -10 -9
-18 -14 -18 -15 0 -11 170 4 171 10 0 10 2 0 6 -9 3 -13 35 -13 112 0 72 4
111 13 120 10 11 10 14 0 18 -7 3 -13 16 -13 29 0 23 2 24 83 24 45 0 89 -5
97 -10z m304 -4 c68 -21 114 -60 145 -125 26 -55 26 -59 26 -281 0 -254 -2
-265 -79 -345 -52 -54 -90 -66 -239 -72 l-117 -5 2 78 3 79 75 1 c54 0 85 6
106 18 55 33 59 46 62 232 5 244 -11 274 -154 280 -42 2 -80 6 -85 9 -10 7
-13 128 -2 138 12 13 209 7 257 -7z m681 -3 c21 -53 285 -807 285 -814 0 -15
-210 -11 -215 4 -2 6 -14 46 -27 87 l-23 75 -116 5 -115 5 19 73 20 72 70 0
70 0 -7 33 c-15 77 -75 271 -79 257 -3 -8 -27 -91 -52 -185 -26 -93 -62 -217
-80 -275 -19 -58 -36 -117 -39 -132 -6 -28 -7 -28 -91 -28 l-85 0 0 55 c0 37
4 55 13 55 9 0 8 3 -2 9 -11 7 -8 27 19 111 19 56 39 104 46 107 7 2 11 10 8
17 -4 11 58 205 141 439 l17 47 108 0 c93 0 109 -2 115 -17z m645 -59 l0 -77
-38 5 c-34 5 -40 2 -60 -26 -49 -72 -18 -112 108 -141 140 -32 225 -64 263
-99 34 -31 50 -55 27 -41 -5 3 -10 2 -10 -3 0 -6 6 -12 13 -15 8 -3 22 -22 31
-42 17 -36 17 -37 -5 -61 -18 -19 -19 -24 -7 -24 9 0 19 6 21 13 13 32 5 -32
-10 -80 -17 -53 -63 -113 -63 -82 0 9 -11 25 -25 37 -14 12 -25 17 -25 12 0
-6 -7 -10 -16 -10 -9 0 -14 -6 -11 -12 2 -7 11 -12 21 -10 9 2 16 -2 16 -8 0
-5 7 -10 15 -10 8 0 15 -6 15 -13 0 -19 -53 -47 -88 -47 -17 0 -32 -5 -34 -11
-2 -6 -27 -14 -56 -17 -48 -4 -52 -3 -52 17 0 12 6 21 15 21 8 0 15 7 15 15 0
9 -6 12 -15 9 -9 -4 -15 0 -15 9 0 8 5 17 11 19 8 3 8 10 -2 25 -15 25 -14 28
24 37 29 7 38 -9 10 -18 -14 -4 -14 -4 2 -3 11 1 26 -2 33 -7 11 -7 12 -4 3
11 -12 23 -6 34 15 26 8 -3 11 -10 7 -16 -3 -6 -1 -7 5 -3 7 4 12 14 12 22 0
8 4 14 8 14 5 0 7 14 4 31 -3 21 1 34 13 43 17 12 16 13 -6 20 l-24 7 29 13
c23 11 25 14 11 19 -9 4 -37 7 -62 7 -36 0 -44 3 -39 15 4 10 -4 17 -27 23
-24 7 -33 5 -35 -6 -3 -9 -11 -12 -25 -7 -12 4 -42 11 -67 16 -159 33 -234
109 -234 239 0 95 34 155 111 194 40 20 129 44 166 45 l27 1 0 -76z m196 36
c71 -35 108 -81 129 -160 16 -60 21 -56 -87 -65 l-76 -6 -12 36 c-13 40 -48
71 -90 80 -30 7 -30 7 -30 82 l0 76 53 -7 c28 -4 79 -20 113 -36z m-4861 -10
c3 -5 1 -10 -4 -10 -6 0 -11 5 -11 10 0 6 2 10 4 10 3 0 8 -4 11 -10z m1145
-161 c0 -5 -7 -9 -17 -9 -15 0 -15 -2 -1 -17 21 -24 26 -239 5 -227 -8 5 -7 2
2 -9 11 -14 11 -23 3 -42 -7 -15 -8 -25 -2 -25 19 0 10 -16 -10 -17 -12 -1
-20 4 -20 13 0 8 -4 12 -10 9 -16 -10 11 -43 32 -37 17 4 18 -4 18 -132 l0
-136 -101 0 -100 0 2 175 c1 113 6 175 13 175 6 0 5 5 -2 12 -17 17 -15 31 3
24 8 -3 15 -1 15 4 0 5 8 11 18 13 9 3 2 5 -15 6 l-33 1 0 56 c0 34 4 53 10
49 6 -3 10 -1 10 4 0 6 -4 11 -10 11 -5 0 -10 7 -10 15 0 8 5 15 11 15 8 0 8
4 0 14 -7 8 -9 25 -6 39 7 25 9 25 101 25 52 0 94 -4 94 -9z m257 -41 c-3 -8
-6 -5 -6 6 -1 11 2 17 5 13 3 -3 4 -12 1 -19z m-2651 -83 c4 -8 10 -15 15 -15
4 0 6 7 3 15 -5 13 14 15 139 15 80 0 152 -3 161 -6 12 -5 16 -21 16 -75 0
-65 -1 -69 -22 -70 -120 -7 -265 -5 -275 3 -9 7 -18 7 -28 -2 -24 -20 -35 -2
-35 58 0 41 3 53 10 42 8 -13 10 -13 10 2 0 9 -4 20 -10 23 -5 3 -10 10 -10
16 0 15 20 10 26 -6z m2914 -1 c0 15 16 16 158 14 l157 -3 3 -72 3 -71 -48 -6
c-78 -8 -237 -5 -250 6 -9 7 -17 7 -28 -2 -8 -6 -19 -9 -25 -5 -15 9 -13 102
3 109 10 5 10 7 0 12 -7 3 -13 13 -13 21 0 14 3 14 20 -2 18 -16 20 -17 20 -1z
m655 -14 c4 0 5 7 1 15 -5 13 13 15 124 15 84 0 131 -4 136 -11 8 -13 7 -130
-2 -138 -10 -10 -233 -10 -240 0 -4 6 -11 6 -19 -1 -24 -20 -35 -1 -35 56 0
41 3 53 13 48 10 -6 10 -4 0 7 -7 7 -13 20 -13 29 1 13 3 12 14 -2 7 -10 17
-18 21 -18z m2204 -250 c13 -44 35 -62 97 -81 l42 -13 -1 -73 c0 -74 -5 -85
-27 -58 -10 12 -15 13 -21 4 -6 -10 -11 -10 -25 2 -11 9 -15 9 -10 2 11 -19
-35 -17 -84 3 -28 11 -39 21 -36 31 4 10 1 13 -13 8 -35 -11 -91 75 -106 162
-6 40 -5 42 22 46 15 2 55 5 89 6 l61 1 12 -40z m-6424 -90 c4 -7 12 -7 25 0
26 14 70 12 70 -2 0 -10 2 -10 8 -1 11 17 212 13 212 -4 0 -7 5 -13 10 -13 6
0 10 -9 10 -19 0 -11 4 -22 10 -26 5 -3 8 -22 7 -43 -2 -32 -5 -37 -30 -40
-28 -3 -28 -3 -14 30 7 18 11 44 7 58 -7 31 -18 15 -28 -42 -6 -32 -13 -44
-27 -46 -17 -3 -17 -1 -5 7 12 9 11 11 -8 11 -13 0 -20 -4 -17 -10 4 -6 -5
-10 -20 -10 -22 0 -26 4 -21 18 5 14 4 14 -9 -2 -8 -11 -18 -17 -21 -13 -4 4
-1 13 6 22 11 13 10 14 -4 9 -9 -3 -16 -12 -16 -20 0 -11 -21 -14 -95 -14
l-96 0 2 73 c1 39 3 75 6 80 6 10 31 9 38 -3z m967 -1 c12 -6 18 -6 18 1 0 5
9 10 20 10 18 0 20 -7 20 -80 l0 -80 -95 0 c-75 0 -95 3 -95 14 0 8 -6 16 -12
18 -21 8 -37 -2 -31 -18 7 -19 -24 -18 -44 1 -8 8 -19 12 -25 9 -6 -4 -5 -10
3 -15 8 -5 10 -9 4 -9 -24 0 -38 19 -33 44 3 14 2 26 -2 26 -4 0 -11 10 -15
23 l-7 22 -7 -25 c-4 -15 -2 -38 6 -58 14 -33 14 -33 -14 -30 -24 3 -27 8 -30
40 -1 21 2 40 8 43 5 4 9 15 9 26 0 10 5 19 10 19 6 0 10 6 10 14 0 11 28 14
142 14 79 0 151 -4 160 -9z m2810 -2 c6 -9 8 -9 8 1 0 15 44 16 73 1 16 -9 22
-9 25 0 2 6 12 11 22 11 16 0 18 -10 19 -80 l1 -80 -95 0 c-75 0 -95 3 -95 14
0 8 -7 17 -16 20 -14 5 -15 4 -4 -9 7 -9 10 -18 6 -22 -3 -4 -13 2 -21 13 -13
16 -14 16 -9 2 5 -14 1 -18 -21 -18 -14 0 -24 4 -21 9 3 5 -3 11 -14 14 -11 3
-20 1 -20 -4 0 -5 5 -9 12 -9 6 0 9 -2 6 -5 -12 -12 -38 9 -38 30 0 13 -5 36
-11 52 l-12 28 -7 -25 c-3 -14 0 -39 7 -58 14 -33 14 -33 -14 -30 -24 3 -28 8
-31 37 -2 18 1 38 7 44 6 6 11 19 11 29 0 10 5 18 10 18 6 0 10 6 10 13 0 17
201 21 212 4z m-2952 -138 c0 -5 -4 -9 -10 -9 -5 0 -10 7 -10 16 0 8 5 12 10
9 6 -3 10 -10 10 -16z m1150 -124 c0 -21 -5 -35 -12 -36 -10 0 -10 -2 0 -6 35
-14 -18 -22 -90 -14 -5 1 -8 21 -8 46 l0 45 55 0 55 0 0 -35z m134 18 c3 -10
4 -31 2 -48 -3 -27 -6 -29 -47 -30 -63 -2 -68 1 -66 51 l1 44 52 0 c41 0 54
-4 58 -17z m-900 -147 c47 -19 76 -61 76 -107 0 -37 -13 -53 -23 -26 -2 6 -7
9 -11 6 -4 -4 0 -14 9 -22 16 -17 21 -32 6 -22 -5 3 -16 -8 -24 -23 -13 -26
-12 -30 4 -40 60 -38 79 -162 26 -162 -18 0 -19 -2 -7 -10 9 -6 11 -10 3 -10
-7 0 -10 -6 -7 -14 7 -19 -40 -50 -66 -43 -11 3 -20 1 -20 -3 0 -5 -20 -8 -45
-6 -25 1 -45 0 -45 -4 0 -3 -16 -4 -36 -2 -35 4 -35 5 -32 46 l4 41 68 6 c74
6 96 21 96 65 0 31 -26 54 -63 55 -29 2 -61 4 -95 8 -9 1 -12 14 -10 44 l3 42
68 3 c62 3 69 5 79 28 20 43 1 58 -78 64 l-69 5 -2 35 c-1 19 0 41 2 48 6 17
146 16 189 -2z m235 -189 l2 -203 -25 -13 c-20 -11 -29 -11 -39 -2 -12 9 -16
8 -21 -4 -5 -14 5 -20 27 -16 5 1 7 -6 5 -16 -2 -10 -10 -17 -17 -15 -7 1 -10
-2 -6 -8 4 -6 15 -8 26 -5 11 4 19 2 19 -4 0 -18 -52 -12 -66 6 -13 17 -14 17
-8 1 3 -10 2 -18 -3 -18 -5 0 -10 37 -10 83 -1 75 1 83 21 89 l21 6 -21 1
c-20 1 -21 6 -23 161 l-2 160 59 0 59 0 2 -203z m181 183 c9 -16 15 -18 29
-10 14 7 22 6 31 -5 7 -8 9 -15 4 -15 -4 0 0 -6 11 -13 10 -8 15 -19 11 -25
-4 -7 -2 -12 5 -12 8 0 10 -16 7 -51 -4 -40 -12 -58 -36 -82 l-31 -30 24 -31
c12 -17 25 -46 27 -63 4 -28 1 -33 -16 -33 -12 0 -29 12 -39 28 -17 27 -17 27
-23 4 -9 -31 -23 -28 -21 4 1 15 -4 29 -11 31 -8 3 -10 -2 -6 -14 5 -15 4 -15
-5 -3 -6 9 -33 17 -68 20 l-58 5 -3 43 -3 42 41 0 c89 0 138 47 111 106 -9 21
-17 24 -70 24 -40 0 -63 5 -71 15 -10 12 -10 15 1 15 10 0 10 3 1 12 -7 7 -12
22 -12 35 0 22 3 23 80 23 69 0 81 -3 90 -20z m350 -25 c0 -41 -3 -45 -35 -61
-47 -22 -76 -79 -76 -149 0 -75 26 -121 85 -150 23 -12 31 -72 8 -67 -6 1 -12
-5 -12 -13 0 -17 -25 -20 -35 -5 -4 6 -10 8 -14 6 -13 -8 -67 30 -94 66 -29
39 -51 103 -43 123 3 8 0 15 -6 15 -17 0 -1 103 23 156 30 63 115 123 177 124
20 0 22 -5 22 -45z m91 33 c75 -22 160 -119 143 -162 -3 -9 -1 -16 4 -16 7 0
10 -30 8 -78 -2 -70 -5 -84 -34 -129 -36 -56 -109 -103 -161 -103 -30 0 -43
21 -21 35 5 3 7 12 4 19 -3 8 14 29 40 50 52 43 63 69 64 150 0 72 -25 117
-80 142 -35 16 -38 20 -38 61 0 48 6 51 71 31z m287 -126 c2 -84 -2 -140 -9
-153 -8 -15 -8 -19 0 -15 8 5 11 -23 11 -93 l0 -101 -37 -1 c-42 -2 -66 1 -72
7 -9 8 -8 179 1 197 5 10 5 17 0 17 -7 0 -9 219 -3 273 1 4 25 7 54 5 l52 -3
3 -133z m202 119 c19 -10 45 -36 57 -57 20 -35 23 -53 23 -168 0 -112 -3 -136
-21 -173 -30 -62 -56 -76 -155 -81 l-84 -5 0 47 0 46 41 0 c41 0 78 14 91 34
4 6 8 63 8 127 0 141 -5 150 -84 157 l-56 4 0 44 0 44 73 0 c51 0 82 -5 107
-19z m219 -95 c1 -90 -2 -117 -14 -129 -19 -20 -19 -28 0 -20 14 5 15 -10 14
-112 -1 -121 -7 -136 -46 -121 -12 5 -14 9 -5 18 17 17 15 28 -5 21 -12 -5
-15 -2 -10 10 4 11 2 14 -9 10 -8 -3 -13 -12 -9 -20 4 -11 1 -13 -11 -9 -14 5
-15 4 -4 -9 7 -9 10 -18 7 -21 -3 -3 -10 3 -15 13 -14 26 -14 313 0 313 7 0 7
5 -1 14 -10 12 -9 14 6 11 10 -2 21 -4 26 -4 4 -1 0 -12 -8 -25 -11 -16 -13
-26 -5 -31 6 -3 7 -11 4 -17 -5 -7 -2 -8 5 -4 7 5 10 14 7 22 -3 8 0 24 6 34
11 16 9 22 -7 34 -10 7 -25 11 -33 8 -16 -6 -13 38 3 50 6 5 5 12 -3 20 -6 6
-12 22 -12 34 0 20 5 22 59 23 l59 1 1 -114z m251 69 l0 -45 -115 0 -115 0 0
45 0 45 115 0 115 0 0 -45z m302 -32 c15 -43 54 -155 87 -250 l60 -171 -56 -4
c-30 -1 -59 0 -65 3 -5 3 -15 26 -22 50 l-13 44 -72 3 -71 3 6 27 c17 67 21
72 65 72 33 0 40 3 35 16 -3 8 -14 44 -23 80 -9 35 -20 64 -23 64 -3 0 -14
-31 -24 -69 -10 -38 -33 -118 -51 -178 l-33 -108 -51 -3 -51 -3 0 37 c0 21 32
134 72 251 l71 213 66 0 67 0 26 -77z m339 67 c51 -14 80 -50 86 -104 6 -46
-2 -57 -25 -34 -9 9 -9 4 -2 -22 5 -18 6 -30 3 -26 -4 4 -12 -3 -19 -16 -11
-20 -8 -25 18 -48 48 -42 59 -150 15 -150 -18 0 -19 -2 -7 -10 12 -8 12 -10
-5 -11 -11 0 -14 -3 -7 -6 6 -2 12 -9 12 -14 0 -13 -60 -41 -76 -35 -8 3 -14
2 -14 -2 0 -5 -36 -9 -80 -10 l-80 -1 0 44 0 45 54 0 c72 0 102 12 110 45 15
59 -5 74 -102 79 l-57 3 -3 47 -3 46 65 0 c68 0 96 14 96 49 0 30 -22 40 -90
43 l-65 3 -3 48 -3 47 73 0 c40 0 89 -5 109 -10z m240 -37 c3 -199 -4 -358
-14 -365 -8 -5 -8 -11 -2 -15 14 -11 14 -54 1 -50 -6 2 -11 13 -11 25 0 11 -4
24 -8 28 -4 4 -7 -5 -7 -19 0 -15 -4 -27 -10 -27 -5 0 -10 -5 -10 -11 0 -6 9
-8 20 -4 11 4 20 2 20 -4 0 -6 -17 -11 -37 -10 -21 0 -32 3 -25 6 19 8 14 22
-8 18 -18 -3 -19 2 -18 68 1 40 6 75 12 79 8 5 7 8 -1 8 -10 0 -13 39 -13 160
l0 160 55 0 55 0 1 -47z m190 26 c7 -15 14 -18 21 -11 12 12 38 5 38 -10 0 -6
8 -16 17 -23 15 -11 15 -15 4 -29 -12 -14 -12 -16 1 -11 10 4 14 -4 16 -30 3
-42 -18 -86 -55 -114 -15 -11 -23 -21 -17 -21 17 0 42 -42 49 -84 7 -33 5 -36
-15 -36 -14 0 -20 5 -17 13 2 6 0 21 -5 32 -7 17 -8 16 -4 -5 5 -24 5 -24 -10
-5 -14 19 -15 19 -20 -3 -7 -23 -19 -29 -29 -12 -3 6 -1 10 5 10 24 0 4 35
-20 36 -14 0 -49 1 -77 2 l-53 2 0 45 0 45 40 0 c91 0 141 51 105 106 -12 19
-25 24 -60 26 -67 2 -69 2 -77 13 -12 16 -9 27 5 19 10 -6 10 -4 0 7 -7 7 -13
23 -13 36 0 22 3 23 80 23 70 0 81 -2 91 -21z m239 1 c0 -11 -6 -20 -12 -20
-10 0 -10 -2 0 -8 15 -10 15 -419 -1 -429 -5 -3 -3 -9 4 -14 9 -5 -9 -9 -47
-9 l-62 0 -1 70 c0 41 3 70 9 70 6 0 10 5 10 11 0 5 -4 7 -10 4 -7 -4 -10 55
-10 169 l0 176 60 0 c53 0 60 -2 60 -20z m140 -230 l0 -250 -60 0 -60 0 0 250
0 250 60 0 60 0 0 -250z m310 246 c0 -3 -47 -52 -105 -109 -58 -57 -105 -109
-105 -115 0 -6 50 -68 110 -137 61 -70 110 -129 110 -133 0 -4 -31 -5 -69 -2
l-68 5 -86 100 -86 100 -1 64 0 63 82 84 82 84 68 0 c37 0 68 -2 68 -4z m60
-6 c0 -5 -4 -10 -10 -10 -5 0 -10 -7 -10 -15 0 -22 24 -14 30 10 4 14 16 21
38 23 l32 3 0 -121 c0 -98 -3 -122 -15 -126 -8 -4 -15 -10 -15 -15 0 -4 7 -6
15 -3 13 5 15 -11 15 -115 l0 -121 -30 0 c-32 0 -40 14 -14 24 17 7 11 21 -9
21 -7 1 -11 7 -9 15 3 11 1 12 -8 4 -7 -7 -13 -24 -13 -38 -1 -14 -6 -24 -12
-23 -11 4 -20 272 -10 324 4 22 10 30 20 27 7 -3 11 -12 8 -20 -4 -10 0 -12
11 -8 9 3 16 10 16 15 0 10 -41 34 -52 31 -14 -4 -9 46 5 51 10 4 10 7 0 18
-18 18 -16 59 2 59 8 0 15 -4 15 -10z m340 -35 l0 -45 -120 0 -120 0 0 45 0
45 120 0 120 0 0 -45z m183 -36 c26 -45 46 -84 43 -86 -8 -9 -76 -15 -93 -9
-15 6 -15 8 -3 16 13 8 13 10 -1 10 -14 0 -99 124 -99 144 0 3 24 6 53 6 l52
0 48 -81z m255 -151 c2 -167 -1 -229 -9 -221 -5 5 -32 48 -59 94 l-49 83 0
138 0 138 58 0 58 0 1 -232z m-379 142 c17 -28 26 -52 21 -55 -15 -9 -12 -22
6 -29 10 -4 13 -2 8 7 -5 7 -1 7 10 -2 21 -17 10 -26 -46 -36 -40 -8 -55 8
-18 18 25 6 27 29 3 25 -15 -3 -18 6 -21 60 -2 34 -1 62 2 62 2 0 18 -22 35
-50z m195 -112 c9 -13 53 -84 96 -158 l79 -135 -37 -5 c-20 -3 -44 -4 -53 -2
-13 3 -189 279 -189 296 0 3 10 6 23 6 12 0 29 5 37 10 21 14 25 13 44 -12z
m-2438 1 c4 -7 8 -27 10 -45 3 -38 11 -36 -126 -36 -44 1 -76 5 -78 11 -2 6
-8 9 -12 6 -5 -3 -5 7 -1 22 4 16 6 33 4 39 -6 17 193 19 203 3z m1970 -1 c-5
9 12 12 78 12 46 0 91 -3 100 -6 20 -8 23 -84 4 -85 -7 0 -56 -1 -108 -2 l-95
-1 -1 47 c-2 42 0 46 14 35 12 -10 14 -10 8 0z m-4118 -40 l-3 -43 -562 -3
-563 -2 0 45 0 45 566 0 565 0 -3 -42z m4466 -6 c3 -20 6 -85 6 -144 l0 -108
-60 0 -61 0 3 137 3 137 40 12 c52 15 61 10 69 -34z m1581 3 l0 -40 -562 -3
-563 -2 0 45 0 45 563 -2 562 -3 0 -40z m-5250 -165 c3 -5 11 -10 16 -10 6 0
7 5 4 10 -3 6 5 10 19 10 19 0 26 -7 31 -30 4 -16 4 -34 0 -40 -3 -5 -1 -10 5
-10 6 0 8 -4 5 -10 -9 -15 -35 -12 -35 4 0 8 -7 16 -15 20 -9 3 -15 0 -15 -8
0 -8 -9 -16 -19 -19 -14 -3 -18 -1 -14 9 3 8 -2 17 -11 20 -9 3 -16 10 -16 16
0 5 4 7 9 4 5 -3 14 1 21 9 9 10 9 15 1 15 -6 0 -11 5 -11 10 0 6 4 10 9 10 6
0 13 -4 16 -10z m2473 -2 c9 -9 12 -9 12 0 0 7 11 12 24 12 18 0 25 -7 30 -31
3 -17 3 -35 0 -40 -3 -5 1 -9 8 -9 9 0 9 -3 -2 -10 -24 -15 -37 -12 -45 13 -4
13 -8 17 -12 9 -2 -7 -13 -17 -24 -22 -15 -8 -17 -7 -13 5 4 8 -1 17 -10 21
-13 5 -12 9 7 25 12 10 16 18 10 19 -7 0 -13 5 -13 10 0 14 13 13 28 -2z
m1062 -44 l0 -44 -53 0 c-29 0 -59 6 -66 13 -8 7 -11 7 -8 1 4 -7 -2 -14 -13
-17 -11 -3 -20 -1 -20 4 0 6 -8 9 -17 7 -17 -3 -19 1 -22 40 -1 13 -3 14 -10
3 -5 -7 -6 -22 -4 -32 4 -13 0 -19 -12 -19 -13 0 -16 7 -13 33 5 52 13 56 131
56 l107 0 0 -45z m-3754 1 c2 -28 -13 -34 -23 -9 -3 9 0 20 8 25 8 5 14 9 14
9 0 0 1 -11 1 -25z"/>
<path d="M266 1607 c3 -10 9 -15 12 -12 3 3 0 11 -7 18 -10 9 -11 8 -5 -6z"/>
<path d="M200 1596 c0 -2 7 -6 15 -10 8 -3 15 -1 15 4 0 6 -7 10 -15 10 -8 0
-15 -2 -15 -4z"/>
<path d="M196 1171 c-3 -5 1 -11 9 -14 9 -4 12 -1 8 9 -6 16 -10 17 -17 5z"/>
<path d="M125 1160 c3 -5 8 -10 11 -10 2 0 4 5 4 10 0 6 -5 10 -11 10 -5 0 -7
-4 -4 -10z"/>
<path d="M170 1161 c0 -8 -8 -20 -17 -27 -17 -12 -17 -13 3 -14 25 0 36 20 23
41 -7 12 -9 12 -9 0z"/>
<path d="M121 1051 c-8 -6 -9 -11 -3 -15 6 -3 14 -1 17 5 9 14 2 20 -14 10z"/>
<path d="M945 1640 c3 -5 8 -10 11 -10 2 0 4 5 4 10 0 6 -5 10 -11 10 -5 0 -7
-4 -4 -10z"/>
<path d="M910 1609 c0 -5 5 -7 10 -4 6 3 10 8 10 11 0 2 -4 4 -10 4 -5 0 -10
-5 -10 -11z"/>
<path d="M920 1559 c0 -5 5 -7 10 -4 6 3 10 8 10 11 0 2 -4 4 -10 4 -5 0 -10
-5 -10 -11z"/>
<path d="M895 1509 c7 -11 35 -12 35 -1 0 4 -9 8 -20 9 -11 1 -18 -2 -15 -8z"/>
<path d="M840 1482 c0 -4 10 -9 22 -9 18 -2 20 0 8 7 -18 12 -30 13 -30 2z"/>
<path d="M846 1425 c4 -8 1 -15 -5 -15 -6 0 -11 -12 -11 -26 0 -14 -4 -23 -10
-19 -5 3 -10 0 -10 -8 0 -12 19 -27 34 -27 1 0 0 15 -2 33 -3 17 -1 29 3 25
11 -11 38 21 31 37 -3 8 -12 15 -20 15 -10 0 -13 -6 -10 -15z"/>
<path d="M884 1348 c-11 -13 -12 -17 -3 -11 8 7 26 17 40 22 22 9 22 10 3 10
-11 1 -29 -9 -40 -21z"/>
<path d="M831 1311 c-8 -5 -9 -11 -3 -15 5 -3 12 1 16 9 6 17 6 18 -13 6z"/>
<path d="M868 1309 c-3 -8 5 -22 21 -33 26 -19 26 -19 10 0 -9 10 -18 26 -21
33 -4 13 -5 13 -10 0z"/>
<path d="M827 1253 c-4 -3 -7 -17 -7 -29 0 -13 -7 -24 -17 -27 -14 -4 -12 -5
5 -6 12 0 22 2 23 7 2 20 5 62 3 62 0 0 -4 -3 -7 -7z"/>
<path d="M870 1253 c0 -7 -8 -13 -17 -14 -14 0 -15 -2 -3 -6 8 -4 23 -15 33
-26 12 -14 17 -16 17 -6 -1 18 -29 68 -30 52z"/>
<path d="M845 1189 c-4 -6 -5 -12 -2 -15 2 -3 7 2 10 11 7 17 1 20 -8 4z"/>
<path d="M936 1141 c-4 -7 -5 -15 -2 -18 9 -9 19 4 14 18 -4 11 -6 11 -12 0z"/>
<path d="M913 1076 c0 -8 6 -12 14 -9 7 3 10 9 7 14 -8 14 -21 11 -21 -5z"/>
<path d="M1606 1607 c3 -10 9 -15 12 -12 3 3 0 11 -7 18 -10 9 -11 8 -5 -6z"/>
<path d="M1545 1590 c3 -5 10 -10 16 -10 5 0 9 5 9 10 0 6 -7 10 -16 10 -8 0
-12 -4 -9 -10z"/>
<path d="M1594 1216 c-3 -9 -14 -16 -23 -16 -14 0 -14 -2 -1 -10 21 -13 30
-12 28 3 -2 6 3 11 10 10 14 -3 16 13 2 22 -6 3 -13 -1 -16 -9z"/>
<path d="M1530 1166 c0 -2 7 -7 16 -10 8 -3 12 -2 9 4 -6 10 -25 14 -25 6z"/>
<path d="M1494 1135 c-17 -13 -17 -14 -2 -15 9 0 20 5 23 11 11 17 0 20 -21 4z"/>
<path d="M1460 1050 c-9 -6 -10 -10 -3 -10 6 0 15 5 18 10 8 12 4 12 -15 0z"/>
<path d="M1728 1488 c4 -16 2 -19 -8 -13 -9 5 -11 4 -6 -4 4 -6 12 -9 17 -6
12 8 12 32 0 39 -5 4 -7 -4 -3 -16z"/>
<path d="M1720 1050 c0 -5 5 -10 11 -10 5 0 7 5 4 10 -3 6 -8 10 -11 10 -2 0
-4 -4 -4 -10z"/>
<path d="M1805 930 c-16 -7 -17 -9 -3 -9 9 -1 20 4 23 9 7 11 7 11 -20 0z"/>
<path d="M1755 880 c4 -6 11 -8 16 -5 14 9 11 15 -7 15 -8 0 -12 -5 -9 -10z"/>
<path d="M1900 1256 c0 -2 7 -6 15 -10 8 -3 15 -1 15 4 0 6 -7 10 -15 10 -8 0
-15 -2 -15 -4z"/>
<path d="M2491 896 c-1 -13 -4 -16 -13 -8 -9 7 -17 6 -27 -5 -12 -13 -11 -14
8 -8 14 4 21 2 21 -7 0 -8 5 -6 11 5 6 10 8 23 5 30 -2 7 -5 4 -5 -7z"/>
<path d="M3470 1635 c-10 -12 -15 -13 -20 -4 -6 8 -9 8 -14 0 -7 -11 -1 -13
29 -13 37 0 44 3 39 17 -8 19 -18 19 -34 0z"/>
<path d="M3350 1630 c0 -5 5 -10 10 -10 15 0 12 -16 -5 -33 -12 -13 -11 -15 9
-13 24 1 27 19 10 48 -5 8 -2 9 10 5 10 -4 15 -3 11 3 -8 13 -45 13 -45 0z"/>
<path d="M3520 1621 c0 -15 31 -42 41 -36 5 4 9 13 9 21 0 8 -4 13 -9 9 -5 -3
-12 -1 -16 5 -8 13 -25 13 -25 1z"/>
<path d="M3600 1605 c0 -8 2 -15 4 -15 2 0 6 7 10 15 3 8 1 15 -4 15 -6 0 -10
-7 -10 -15z"/>
<path d="M3470 1593 c0 -6 9 -20 20 -33 11 -13 20 -20 20 -16 0 4 -9 19 -20
33 -11 14 -20 21 -20 16z"/>
<path d="M3094 1545 c8 -8 20 -15 27 -15 7 0 4 6 -7 15 -25 19 -40 19 -20 0z"/>
<path d="M3220 1550 c0 -5 5 -10 10 -10 6 0 10 5 10 10 0 6 -4 10 -10 10 -5 0
-10 -4 -10 -10z"/>
<path d="M3275 1530 c4 -6 11 -8 16 -5 14 9 11 15 -7 15 -8 0 -12 -5 -9 -10z"/>
<path d="M3795 1610 c-3 -5 -2 -10 4 -10 5 0 13 5 16 10 3 6 2 10 -4 10 -5 0
-13 -4 -16 -10z"/>
<path d="M3820 1559 c0 -5 5 -7 10 -4 6 3 10 8 10 11 0 2 -4 4 -10 4 -5 0 -10
-5 -10 -11z"/>
<path d="M3796 1508 c3 -4 12 -8 20 -8 8 0 14 4 14 8 0 4 -9 8 -19 8 -11 0
-17 -4 -15 -8z"/>
<path d="M3740 1482 c0 -4 10 -9 22 -9 18 -2 20 0 8 7 -18 12 -30 13 -30 2z"/>
<path d="M3700 1360 c0 -8 31 -30 43 -30 3 0 3 9 0 20 -5 20 -43 29 -43 10z"/>
<path d="M3795 1360 c-8 -13 5 -13 25 0 13 8 13 10 -2 10 -9 0 -20 -4 -23 -10z"/>
<path d="M3772 1330 c0 -14 2 -19 5 -12 2 6 2 18 0 25 -3 6 -5 1 -5 -13z"/>
<path d="M3725 1311 c-3 -5 -1 -12 4 -15 5 -3 11 1 15 9 6 16 -9 21 -19 6z"/>
<path d="M3727 1253 c-4 -3 -7 -17 -7 -30 0 -15 -6 -23 -17 -24 -10 0 -5 -5
12 -10 20 -6 33 -5 40 3 7 8 5 9 -9 4 -14 -5 -17 -2 -12 10 3 8 6 18 6 20 0
12 25 1 41 -18 11 -11 19 -17 19 -12 0 6 -5 15 -12 22 -7 7 -8 12 -2 12 5 0 2
4 -5 9 -9 6 -22 6 -34 -1 -17 -9 -19 -8 -14 6 7 17 5 20 -6 9z"/>
<path d="M3830 1134 c0 -8 5 -12 10 -9 6 3 10 10 10 16 0 5 -4 9 -10 9 -5 0
-10 -7 -10 -16z"/>
<path d="M3810 1074 c0 -8 5 -12 10 -9 6 3 10 10 10 16 0 5 -4 9 -10 9 -5 0
-10 -7 -10 -16z"/>
<path d="M3821 948 c-16 -26 -11 -30 12 -8 10 10 14 20 10 23 -5 3 -15 -3 -22
-15z"/>
<path d="M4505 1640 c3 -5 8 -10 11 -10 2 0 4 5 4 10 0 6 -5 10 -11 10 -5 0
-7 -4 -4 -10z"/>
<path d="M4480 1559 c0 -5 5 -7 10 -4 6 3 10 8 10 11 0 2 -4 4 -10 4 -5 0 -10
-5 -10 -11z"/>
<path d="M4475 1510 c-3 -5 -1 -10 4 -10 6 0 11 5 11 10 0 6 -2 10 -4 10 -3 0
-8 -4 -11 -10z"/>
<path d="M4400 1482 c0 -4 10 -9 22 -9 18 -2 20 0 8 7 -18 12 -30 13 -30 2z"/>
<path d="M4455 1360 c-8 -13 5 -13 25 0 13 8 13 10 -2 10 -9 0 -20 -4 -23 -10z"/>
<path d="M4432 1315 c0 -16 2 -22 5 -12 2 9 2 23 0 30 -3 6 -5 -1 -5 -18z"/>
<path d="M4391 1311 c-8 -5 -9 -11 -3 -15 5 -3 12 1 16 9 6 17 6 18 -13 6z"/>
<path d="M4455 1281 c-3 -5 -2 -12 3 -15 5 -3 9 1 9 9 0 17 -3 19 -12 6z"/>
<path d="M4387 1253 c-4 -3 -7 -17 -7 -29 0 -13 -7 -24 -17 -27 -14 -4 -13 -5
4 -6 14 -1 24 6 28 19 8 26 23 25 48 -2 l19 -23 -7 25 c-10 32 -24 58 -25 44
0 -7 -9 -14 -21 -17 -15 -4 -19 -2 -15 9 6 15 3 18 -7 7z"/>
<path d="M4405 1189 c-4 -6 -5 -12 -2 -15 2 -3 7 2 10 11 7 17 1 20 -8 4z"/>
<path d="M4490 1134 c0 -8 5 -12 10 -9 6 3 10 10 10 16 0 5 -4 9 -10 9 -5 0
-10 -7 -10 -16z"/>
<path d="M4473 1076 c0 -8 6 -12 14 -9 7 3 10 9 7 14 -8 14 -21 11 -21 -5z"/>
<path d="M4358 1053 c7 -3 16 -2 19 1 4 3 -2 6 -13 5 -11 0 -14 -3 -6 -6z"/>
<path d="M4490 955 c0 -8 -4 -15 -10 -15 -5 0 -10 -5 -10 -12 0 -6 9 -3 20 7
22 20 26 35 10 35 -5 0 -10 -7 -10 -15z"/>
<path d="M5066 1607 c3 -10 9 -15 12 -12 3 3 0 11 -7 18 -10 9 -11 8 -5 -6z"/>
<path d="M5006 1601 c-3 -5 1 -11 9 -15 9 -3 15 0 15 9 0 16 -16 20 -24 6z"/>
<path d="M5053 1217 c-4 -8 -15 -16 -23 -19 -10 -3 -8 -6 7 -10 14 -4 22 -2
20 6 -1 6 4 10 11 9 14 -3 16 13 3 22 -6 3 -13 -1 -18 -8z"/>
<path d="M4974 1168 c3 -12 0 -18 -9 -18 -19 0 -19 -16 -1 -23 19 -7 29 20 15
41 -10 16 -10 15 -5 0z"/>
<path d="M4980 1059 c0 -5 5 -7 10 -4 6 3 10 8 10 11 0 2 -4 4 -10 4 -5 0 -10
-5 -10 -11z"/>
<path d="M4920 1050 c-9 -6 -10 -10 -3 -10 6 0 15 5 18 10 8 12 4 12 -15 0z"/>
<path d="M5187 1490 c4 -16 2 -19 -11 -14 -9 3 -16 4 -16 1 0 -12 30 -14 39
-3 8 10 7 17 -3 25 -12 10 -13 9 -9 -9z"/>
<path d="M5180 1050 c0 -5 7 -10 16 -10 8 0 12 5 9 10 -3 6 -10 10 -16 10 -5
0 -9 -4 -9 -10z"/>
<path d="M5278 1033 c7 -3 16 -2 19 1 4 3 -2 6 -13 5 -11 0 -14 -3 -6 -6z"/>
<path d="M5270 930 c-9 -6 -10 -10 -3 -10 6 0 15 5 18 10 8 12 4 12 -15 0z"/>
<path d="M5228 883 c7 -3 16 -2 19 1 4 3 -2 6 -13 5 -11 0 -14 -3 -6 -6z"/>
<path d="M5361 967 c2 -1 12 -9 22 -16 15 -12 17 -12 11 3 -3 9 -13 16 -22 16
-8 0 -13 -1 -11 -3z"/>
<path d="M5893 1135 c-3 -9 -3 -18 -1 -21 3 -3 8 4 11 16 6 23 -1 27 -10 5z"/>
<path d="M5986 1137 c3 -10 9 -15 12 -12 3 3 0 11 -7 18 -10 9 -11 8 -5 -6z"/>
<path d="M5928 898 c-3 -15 -1 -25 4 -22 5 3 15 0 23 -6 13 -10 15 -8 14 16 0
16 -3 23 -6 17 -7 -19 -21 -16 -25 5 -3 12 -6 9 -10 -10z"/>
<path d="M7147 1228 c1 -18 2 -35 3 -38 1 -3 2 -9 1 -13 -1 -5 2 -6 6 -4 5 3
7 19 7 36 -2 46 -3 51 -11 51 -5 0 -7 -15 -6 -32z"/>
<path d="M6934 1215 c-16 -12 -17 -14 -3 -15 9 0 19 7 23 15 7 19 5 19 -20 0z"/>
<path d="M7238 1133 c6 -2 18 -2 25 0 6 3 1 5 -13 5 -14 0 -19 -2 -12 -5z"/>
<path d="M7175 1120 c-19 -8 -19 -9 3 -9 12 -1 22 4 22 9 0 6 -1 10 -2 9 -2 0
-12 -4 -23 -9z"/>
<path d="M7110 984 c0 -17 22 -14 28 4 2 7 -3 12 -12 12 -9 0 -16 -7 -16 -16z"/>
<path d="M3247 1279 c7 -7 15 -10 18 -7 3 3 -2 9 -12 12 -14 6 -15 5 -6 -5z"/>
<path d="M3270 1200 c0 -5 5 -10 10 -10 6 0 10 -10 11 -22 0 -22 1 -22 8 -3 5
11 6 26 4 33 -6 14 -33 16 -33 2z"/>
<path d="M3250 1159 c0 -5 5 -7 10 -4 6 3 10 8 10 11 0 2 -4 4 -10 4 -5 0 -10
-5 -10 -11z"/>
<path d="M3320 1159 c0 -5 5 -7 10 -4 6 3 10 8 10 11 0 2 -4 4 -10 4 -5 0 -10
-5 -10 -11z"/>
<path d="M1286 1315 c4 -8 15 -15 27 -15 23 0 22 2 -10 19 -19 10 -22 9 -17
-4z"/>
<path d="M1055 1310 c3 -5 8 -10 11 -10 2 0 4 5 4 10 0 6 -5 10 -11 10 -5 0
-7 -4 -4 -10z"/>
<path d="M1017 1243 c-4 -3 -7 -13 -7 -22 1 -13 3 -13 11 2 11 19 8 33 -4 20z"/>
<path d="M4135 1340 c3 -5 8 -10 11 -10 2 0 4 5 4 10 0 6 -5 10 -11 10 -5 0
-7 -4 -4 -10z"/>
<path d="M4189 1311 c7 -12 17 -18 27 -14 17 6 17 6 -14 22 -22 12 -23 11 -13
-8z"/>
<path d="M3955 1310 c3 -5 8 -10 11 -10 2 0 4 5 4 10 0 6 -5 10 -11 10 -5 0
-7 -4 -4 -10z"/>
<path d="M3917 1244 c-4 -4 -7 -14 -7 -23 0 -11 3 -12 11 -4 6 6 10 16 7 23
-2 6 -7 8 -11 4z"/>
<path d="M4605 1310 c3 -5 8 -10 11 -10 2 0 4 5 4 10 0 6 -5 10 -11 10 -5 0
-7 -4 -4 -10z"/>
<path d="M4805 1310 c3 -5 14 -10 23 -10 15 0 15 2 2 10 -20 13 -33 13 -25 0z"/>
<path d="M4570 1225 c0 -8 2 -15 4 -15 2 0 6 7 10 15 3 8 1 15 -4 15 -6 0 -10
-7 -10 -15z"/>
<path d="M345 920 c3 -5 8 -10 11 -10 2 0 4 5 4 10 0 6 -5 10 -11 10 -5 0 -7
-4 -4 -10z"/>
<path d="M500 905 c-8 -45 -8 -47 2 -37 5 5 8 18 5 28 -3 11 -6 15 -7 9z"/>
<path d="M1370 919 c0 -5 5 -7 10 -4 6 3 10 8 10 11 0 2 -4 4 -10 4 -5 0 -10
-5 -10 -11z"/>
<path d="M1220 898 c0 -7 5 -20 10 -28 8 -12 10 -11 10 7 0 12 -4 25 -10 28
-5 3 -10 0 -10 -7z"/>
<path d="M4270 919 c0 -5 5 -7 10 -4 6 3 10 8 10 11 0 2 -4 4 -10 4 -5 0 -10
-5 -10 -11z"/>
<path d="M4120 892 c0 -11 5 -24 10 -27 6 -4 9 2 7 14 -4 29 -17 39 -17 13z"/>
<path d="M1601 334 c0 -11 3 -14 6 -6 3 7 2 16 -1 19 -3 4 -6 -2 -5 -13z"/>
<path d="M1633 300 c-6 -17 -7 -30 -2 -30 9 0 24 48 17 55 -2 2 -9 -9 -15 -25z"/>
<path d="M1599 245 c-1 -8 -2 -19 -3 -25 -1 -5 2 -10 7 -10 4 0 7 3 6 6 0 4 4
10 9 13 6 4 4 11 -4 19 -12 10 -14 10 -15 -3z"/>
<path d="M1727 423 c-15 -14 -6 -33 16 -32 16 1 17 3 5 6 -10 2 -15 10 -11 19
5 15 1 18 -10 7z"/>
<path d="M2034 263 c2 -9 8 -19 15 -21 10 -3 10 0 2 17 -14 25 -20 27 -17 4z"/>
<path d="M2180 360 c0 -12 28 -25 36 -17 3 3 -4 10 -15 17 -15 7 -21 7 -21 0z"/>
<path d="M2148 293 c6 -2 18 -2 25 0 6 3 1 5 -13 5 -14 0 -19 -2 -12 -5z"/>
<path d="M2520 410 c0 -5 7 -10 16 -10 8 0 12 5 9 10 -3 6 -10 10 -16 10 -5 0
-9 -4 -9 -10z"/>
<path d="M2508 373 c7 -3 16 -2 19 1 4 3 -2 6 -13 5 -11 0 -14 -3 -6 -6z"/>
<path d="M3050 575 c7 -8 16 -15 21 -15 5 0 6 7 3 15 -4 8 -13 15 -21 15 -13
0 -13 -3 -3 -15z"/>
<path d="M3050 506 c0 -2 7 -7 16 -10 8 -3 12 -2 9 4 -6 10 -25 14 -25 6z"/>
<path d="M3099 413 c-13 -16 -12 -17 4 -4 16 13 21 21 13 21 -2 0 -10 -8 -17
-17z"/>
<path d="M3080 346 c0 -2 7 -9 15 -16 13 -11 14 -10 9 4 -5 14 -24 23 -24 12z"/>
<path d="M4065 341 c-3 -5 -1 -12 5 -16 5 -3 10 1 10 9 0 18 -6 21 -15 7z"/>
<path d="M4103 324 c3 -3 2 -17 -3 -30 -5 -13 -6 -24 -1 -24 10 0 21 24 21 46
0 8 -5 14 -12 14 -6 0 -9 -3 -5 -6z"/>
<path d="M4070 253 c-2 -13 -3 -27 -4 -33 -1 -5 2 -10 7 -10 4 0 7 3 6 6 0 4
5 11 13 15 9 6 9 9 1 9 -6 0 -14 8 -16 18 -4 13 -5 12 -7 -5z"/>
<path d="M4023 213 c-15 -5 -17 -23 -4 -23 5 0 11 7 15 15 3 8 4 15 3 14 -1 0
-8 -3 -14 -6z"/>
<path d="M4245 590 c3 -5 8 -10 11 -10 2 0 4 5 4 10 0 6 -5 10 -11 10 -5 0 -7
-4 -4 -10z"/>
<path d="M4197 423 c-15 -14 -6 -33 16 -32 16 1 17 3 5 6 -10 2 -15 10 -11 19
5 15 1 18 -10 7z"/>
<path d="M4225 281 c-3 -5 -2 -12 3 -15 5 -3 9 1 9 9 0 17 -3 19 -12 6z"/>
<path d="M4206 182 c-3 -6 -1 -14 5 -17 15 -10 25 3 12 16 -7 7 -13 7 -17 1z"/>
<path d="M4440 529 c0 -5 5 -7 10 -4 6 3 10 8 10 11 0 2 -4 4 -10 4 -5 0 -10
-5 -10 -11z"/>
<path d="M4620 279 c0 -5 5 -7 10 -4 6 3 10 8 10 11 0 2 -4 4 -10 4 -5 0 -10
-5 -10 -11z"/>
<path d="M5209 411 c7 -5 10 -14 7 -20 -4 -6 -2 -11 3 -11 6 0 11 9 11 20 0
12 -7 20 -17 20 -14 0 -15 -2 -4 -9z"/>
<path d="M5210 336 c0 -8 4 -17 9 -20 5 -4 7 3 4 14 -6 23 -13 26 -13 6z"/>
<path d="M5230 346 c0 -2 7 -9 15 -16 13 -11 14 -10 9 4 -5 14 -24 23 -24 12z"/>
<path d="M5728 458 c9 -9 15 -9 24 0 9 9 7 12 -12 12 -19 0 -21 -3 -12 -12z"/>
<path d="M2060 180 c0 -5 5 -10 11 -10 5 0 7 5 4 10 -3 6 -8 10 -11 10 -2 0
-4 -4 -4 -10z"/>
</g>
</svg>
