<?xml version="1.0" standalone="no"?>
<!DOCTYPE svg PUBLIC "-//W3C//DTD SVG 20010904//EN"
 "http://www.w3.org/TR/2001/REC-SVG-20010904/DTD/svg10.dtd">
<svg version="1.0" xmlns="http://www.w3.org/2000/svg"
 width="406.000000pt" height="134.000000pt" viewBox="0 0 406.000000 134.000000"
 preserveAspectRatio="xMidYMid meet">

<g transform="translate(0.000000,134.000000) scale(0.100000,-0.100000)"
fill="#000000" stroke="none">
<path d="M1382 1244 c-2 -19 1 -34 5 -35 63 -6 73 -3 84 23 15 37 5 47 -44 46
-42 0 -43 -2 -45 -34z"/>
<path d="M1509 1270 c-9 -57 -4 -62 50 -64 35 -2 36 0 39 36 l2 38 -45 -2
c-25 -1 -45 -5 -46 -8z"/>
<path d="M90 1020 c0 -116 3 -142 15 -146 8 -4 13 -10 10 -15 -3 -4 -12 -6
-20 -2 -11 4 -13 1 -9 -11 3 -9 7 -35 8 -58 1 -43 1 -43 36 -40 40 4 54 22 53
69 -1 18 -2 47 -2 64 -1 26 -4 30 -21 26 -25 -7 -25 -3 1 22 18 17 21 32 23
100 0 46 -3 83 -9 85 -6 3 -4 9 4 14 23 17 2 32 -45 32 l-44 0 0 -140z m40
-130 c0 -5 -4 -10 -10 -10 -5 0 -10 5 -10 10 0 6 5 10 10 10 6 0 10 -4 10 -10z"/>
<path d="M450 1150 c0 -5 5 -10 10 -10 6 0 10 5 10 10 0 6 -4 10 -10 10 -5 0
-10 -4 -10 -10z"/>
<path d="M497 1153 c-4 -3 -7 -15 -7 -25 0 -16 -3 -17 -20 -8 -19 10 -20 10
-8 -9 10 -16 10 -23 0 -33 -6 -6 -12 -17 -12 -22 0 -6 7 -3 15 8 15 19 40 13
31 -9 -3 -8 0 -16 7 -18 9 -3 9 -8 0 -18 -20 -21 -15 -34 6 -15 12 11 21 13
25 7 4 -5 -1 -14 -10 -19 -19 -10 -11 -32 11 -32 12 0 14 20 13 100 -1 96 -2
100 -23 100 -12 0 -25 -3 -28 -7z"/>
<path d="M573 1144 c-2 -7 -3 -23 -1 -36 3 -22 6 -23 106 -25 l102 -2 0 38 0
38 -101 0 c-72 0 -102 -4 -106 -13z"/>
<path d="M810 1026 c0 -106 3 -138 15 -150 19 -19 19 -30 1 -23 -12 5 -15 -6
-15 -49 l0 -54 39 0 c48 0 58 15 58 90 0 44 -4 58 -21 71 l-20 17 21 6 c20 7
22 14 22 91 0 57 -4 85 -12 89 -10 5 -10 7 0 12 6 3 12 12 12 20 0 10 -14 14
-50 14 l-50 0 0 -134z m40 -136 c0 -5 -5 -10 -11 -10 -5 0 -7 5 -4 10 3 6 8
10 11 10 2 0 4 -4 4 -10z"/>
<path d="M937 1153 c-9 -18 -6 -224 3 -218 6 3 10 2 10 -4 0 -5 -4 -13 -10
-16 -13 -8 -13 -135 0 -135 5 0 7 -7 3 -16 -5 -13 2 -15 43 -12 l49 3 0 73 c1
53 -2 72 -12 72 -15 0 -18 17 -4 22 12 4 20 186 10 216 -7 18 -16 22 -48 22
-22 0 -42 -3 -44 -7z m33 -93 c0 -5 -5 -10 -11 -10 -5 0 -7 5 -4 10 3 6 8 10
11 10 2 0 4 -4 4 -10z"/>
<path d="M1058 1153 c-2 -5 -2 -21 1 -38 6 -28 9 -30 49 -31 50 -1 75 -21 75
-60 0 -39 -37 -67 -84 -62 -28 3 -37 0 -38 -12 0 -8 -1 -24 -3 -35 -3 -17 3
-20 47 -23 112 -7 175 40 175 133 0 91 -56 135 -172 135 -26 0 -48 -3 -50 -7z"/>
<path d="M1437 1153 c-11 -18 -87 -223 -91 -246 -2 -14 -11 -36 -20 -49 -16
-25 -26 -101 -13 -105 4 -2 25 -3 47 -3 33 0 40 3 40 20 0 11 4 28 10 38 8 14
47 132 76 232 6 23 8 21 24 -26 10 -28 21 -64 24 -80 7 -29 6 -30 -28 -26 -31
4 -37 1 -46 -23 -19 -49 -15 -54 52 -57 60 -3 61 -4 73 -38 11 -34 14 -35 68
-38 l56 -3 -56 143 c-30 79 -65 170 -78 203 l-23 60 -55 3 c-30 2 -57 -1 -60
-5z"/>
<path d="M1695 1149 c-3 -4 2 -9 10 -13 8 -3 15 -10 15 -15 0 -6 -8 -7 -17 -4
-16 6 -16 5 -4 -11 13 -16 12 -17 -12 -11 -17 5 -27 3 -27 -4 0 -14 91 -12
109 3 11 8 13 8 8 0 -4 -8 8 -12 39 -12 38 -1 44 1 34 12 -8 11 -8 16 1 22 8
4 9 3 5 -4 -13 -22 10 -12 31 12 16 18 28 23 45 19 13 -4 20 -2 15 3 -10 11
-246 14 -252 3z"/>
<path d="M2020 1150 c0 -5 5 -10 10 -10 6 0 10 5 10 10 0 6 -4 10 -10 10 -5 0
-10 -4 -10 -10z"/>
<path d="M2067 1153 c-4 -3 -7 -15 -7 -25 0 -15 -3 -17 -19 -8 -19 9 -19 8 -4
-20 8 -17 19 -30 25 -30 5 0 8 -6 5 -14 -3 -8 -1 -17 6 -19 9 -3 9 -8 0 -18
-21 -21 -15 -34 7 -14 11 10 20 13 20 8 0 -6 -7 -16 -16 -24 -14 -11 -14 -13
0 -21 30 -17 36 2 34 98 -2 89 -3 94 -23 94 -12 0 -25 -3 -28 -7z"/>
<path d="M2144 1151 c-2 -2 -4 -19 -4 -38 l0 -33 105 1 105 1 0 38 0 38 -101
-1 c-55 -1 -102 -3 -105 -6z"/>
<path d="M2380 1150 c0 -5 5 -10 10 -10 6 0 10 5 10 10 0 6 -4 10 -10 10 -5 0
-10 -4 -10 -10z"/>
<path d="M2427 1153 c-4 -3 -7 -15 -7 -25 0 -15 -3 -17 -19 -8 -19 9 -19 8 -4
-20 8 -17 19 -30 24 -30 5 0 9 -5 9 -11 0 -6 -8 -9 -17 -5 -12 3 -10 0 5 -11
21 -15 22 -17 6 -34 -21 -23 -7 -25 18 -2 10 9 18 11 18 6 0 -6 -7 -16 -16
-24 -14 -11 -14 -13 0 -21 29 -16 36 1 32 75 -2 40 -5 82 -5 95 -1 21 -28 31
-44 15z"/>
<path d="M2687 1153 c-10 -10 -8 -235 2 -229 4 3 6 -5 4 -18 -3 -13 0 -27 6
-30 16 -10 14 -26 -2 -20 -16 6 -19 -25 -4 -43 6 -8 6 -13 0 -13 -11 0 -11
-29 -1 -46 4 -5 22 -8 41 -6 40 5 47 18 47 99 0 39 -4 55 -17 62 -17 10 -17
12 0 25 15 12 18 28 16 120 l-2 106 -42 0 c-23 0 -45 -3 -48 -7z m35 -265 c-7
-7 -12 -8 -12 -2 0 14 12 26 19 19 2 -3 -1 -11 -7 -17z"/>
<path d="M2810 1144 c0 -9 5 -12 13 -8 9 6 9 5 0 -7 -15 -19 -16 -189 -2 -189
6 0 5 -9 -1 -21 -6 -11 -10 -54 -9 -95 l3 -74 48 0 48 0 0 74 c0 61 -3 75 -17
81 -17 6 -17 7 0 16 14 9 17 26 17 118 0 120 -1 121 -66 121 -24 0 -34 -5 -34
-16z"/>
<path d="M2930 1125 c0 -32 2 -35 29 -35 36 0 83 -17 93 -33 4 -7 8 -54 8
-104 0 -121 -17 -142 -115 -134 -17 2 -17 0 -5 -8 11 -8 12 -11 2 -11 -9 0
-12 -10 -10 -27 3 -28 4 -28 68 -25 79 4 107 17 137 61 20 30 23 46 23 138 0
131 -13 166 -72 193 -26 12 -65 20 -100 20 l-58 0 0 -35z"/>
<path d="M3317 1153 c-11 -18 -87 -223 -91 -247 -3 -14 -12 -36 -20 -48 -9
-12 -16 -42 -16 -65 l0 -43 45 0 c40 0 45 2 45 23 0 13 4 27 9 32 7 8 43 119
78 240 4 15 12 1 30 -49 30 -91 30 -93 -12 -88 -30 4 -36 1 -45 -23 -19 -49
-15 -54 52 -57 60 -3 61 -4 73 -38 11 -34 13 -35 68 -38 l57 -3 -16 40 c-8 21
-44 113 -79 203 l-63 163 -55 3 c-31 2 -57 -1 -60 -5z"/>
<path d="M3724 1149 c-99 -23 -136 -121 -68 -184 30 -28 103 -48 121 -34 9 8
21 5 43 -11 17 -12 37 -19 45 -16 8 3 17 1 20 -4 4 -6 0 -10 -7 -10 -10 0 -10
-2 -1 -8 8 -5 9 -13 3 -22 -15 -23 -12 -38 8 -36 9 2 23 -6 31 -17 14 -19 14
-19 32 4 23 29 25 53 4 45 -8 -3 -15 -1 -15 4 0 6 6 10 13 10 8 0 7 3 -3 10
-12 7 -12 10 4 16 16 6 17 9 4 18 -8 6 -20 21 -26 32 -8 15 -31 27 -79 39
-127 32 -133 35 -133 59 0 28 18 46 46 46 16 0 21 5 19 18 -2 9 -4 25 -4 35
-1 9 -4 17 -8 16 -5 -1 -27 -5 -49 -10z m178 -221 c-8 -8 -9 -4 -5 13 4 13 8
18 11 10 2 -7 -1 -18 -6 -23z"/>
<path d="M3804 1146 c-10 -26 1 -51 28 -64 15 -7 30 -21 33 -32 9 -28 95 -30
95 -2 0 40 -38 81 -91 96 -64 19 -58 19 -65 2z"/>
<path d="M1916 1115 c4 -8 11 -15 17 -15 6 0 7 -3 4 -6 -4 -4 -13 -1 -21 5
-15 13 -36 7 -36 -10 0 -5 25 -9 55 -9 40 0 55 4 55 14 0 20 -27 41 -32 25 -3
-9 -9 -9 -26 0 -18 10 -21 9 -16 -4z"/>
<path d="M1781 1003 c0 -40 4 -53 15 -53 13 0 13 -2 0 -16 -12 -12 -16 -36
-16 -100 l0 -84 45 0 c49 0 49 0 46 75 -1 22 -8 45 -16 51 -19 15 -19 28 0 20
11 -4 15 3 16 29 3 120 -1 132 -51 132 l-39 0 0 -54z m34 -83 c3 -5 1 -10 -4
-10 -6 0 -11 5 -11 10 0 6 2 10 4 10 3 0 8 -4 11 -10z"/>
<path d="M456 1009 c-10 -63 -3 -248 9 -253 8 -3 10 4 8 18 -3 15 1 25 12 30
13 4 16 2 11 -9 -8 -23 11 -18 28 7 13 18 16 19 16 6 0 -9 -4 -20 -10 -23 -15
-10 -12 -35 5 -35 12 0 15 15 15 71 0 44 -4 68 -10 64 -5 -3 -10 -1 -10 4 0 6
5 11 10 11 6 0 10 9 10 20 0 17 -3 19 -19 11 -14 -8 -22 -7 -32 7 -13 16 -13
16 5 2 17 -13 19 -13 14 0 -2 8 -15 21 -29 27 -13 7 -19 13 -14 13 6 0 3 5 -5
10 -13 9 -13 11 0 20 11 7 12 12 3 21 -9 9 -13 4 -17 -22z m27 -79 c3 -11 1
-18 -4 -14 -5 3 -9 12 -9 20 0 20 7 17 13 -6z"/>
<path d="M2026 1013 c-9 -30 -4 -253 5 -259 5 -3 9 6 9 19 0 14 7 28 16 31 12
4 15 2 10 -9 -8 -23 11 -18 28 7 13 18 16 19 16 6 0 -9 -4 -20 -10 -23 -15
-10 -12 -35 5 -35 12 0 15 15 15 71 0 44 -4 68 -10 64 -5 -3 -10 -1 -10 4 0 6
5 11 10 11 6 0 10 9 10 21 0 13 -5 19 -13 16 -7 -3 -19 4 -25 14 -7 10 -19 19
-28 19 -8 0 -12 5 -9 10 3 6 1 10 -5 10 -7 0 -9 8 -5 20 3 11 4 20 1 20 -2 0
-7 -8 -10 -17z m27 -83 c3 -11 1 -18 -4 -14 -5 3 -9 12 -9 20 0 20 7 17 13 -6z
m22 10 c3 -5 1 -10 -4 -10 -6 0 -11 5 -11 10 0 6 2 10 4 10 3 0 8 -4 11 -10z"/>
<path d="M2385 1010 c-10 -31 -3 -250 8 -257 6 -3 8 -2 5 3 -8 13 9 54 23 54
6 0 9 -7 5 -15 -8 -22 11 -18 27 5 8 11 16 17 20 14 3 -3 5 9 5 27 -1 19 -6
38 -12 42 -8 6 -7 10 2 14 15 6 16 46 0 41 -6 -2 -20 3 -29 11 -10 9 -25 22
-34 29 -10 8 -13 21 -10 33 4 10 4 19 1 19 -2 0 -7 -9 -11 -20z m28 -80 c3
-11 1 -18 -4 -14 -5 3 -9 12 -9 20 0 20 7 17 13 -6z m27 -1 c0 -6 -4 -7 -10
-4 -5 3 -10 11 -10 16 0 6 5 7 10 4 6 -3 10 -11 10 -16z"/>
<path d="M584 979 c-15 -16 -15 -20 -1 -34 12 -11 37 -15 97 -15 l81 0 -3 33
-3 32 -77 1 c-63 1 -81 -3 -94 -17z m160 -10 c-6 -11 -24 -2 -24 11 0 5 7 7
15 4 8 -4 12 -10 9 -15z"/>
<path d="M2154 983 c-17 -18 -17 -21 0 -39 10 -10 39 -14 96 -14 l81 0 -3 33
-3 32 -78 1 c-56 1 -83 -3 -93 -13z"/>
<path d="M2511 978 c-21 -34 2 -48 81 -48 l69 0 -3 33 -3 32 -66 1 c-55 2 -68
-1 -78 -18z"/>
<path d="M3614 848 c7 -35 32 -68 52 -68 7 0 14 -5 16 -11 2 -6 25 -12 51 -13
46 -1 47 -1 47 30 0 27 -4 32 -30 38 -20 4 -34 14 -40 31 -8 22 -15 25 -56 25
l-46 0 6 -32z"/>
<path d="M212 784 c-1 -31 0 -32 44 -36 42 -3 65 4 47 15 -10 5 5 2 33 -7 21
-6 27 -3 61 38 19 22 3 26 -95 24 l-89 -2 -1 -32z"/>
<path d="M584 798 c-12 -36 -13 -48 -3 -48 5 0 9 12 9 26 0 14 4 23 10 19 6
-3 10 -14 10 -24 0 -15 7 -18 35 -15 19 1 39 5 44 9 6 3 9 0 6 -7 -4 -10 7
-12 45 -10 43 3 48 6 41 21 -5 9 -6 23 -1 31 7 13 -6 16 -90 18 -95 2 -99 1
-106 -20z"/>
<path d="M2160 811 c0 -6 5 -13 10 -16 6 -3 10 -14 10 -24 0 -15 7 -18 35 -15
19 1 39 5 44 9 6 3 9 0 6 -7 -4 -10 6 -12 39 -10 42 4 44 5 44 36 l0 32 -94 2
c-55 1 -94 -2 -94 -7z"/>
<path d="M3850 811 c0 -5 -11 -8 -25 -5 -23 4 -24 3 -13 -16 11 -17 10 -22 -2
-31 -11 -8 -2 -9 34 -5 60 7 73 23 41 48 -26 20 -35 22 -35 9z"/>
<path d="M407 776 c-4 -10 -5 -21 -2 -24 9 -9 17 6 13 25 -3 17 -4 17 -11 -1z"/>
<path d="M2145 777 c-4 -10 -5 -21 -1 -24 10 -10 18 4 13 24 -4 17 -4 17 -12
0z"/>
<path d="M2447 772 c-15 -17 -15 -18 7 -20 16 -1 23 3 22 13 -3 24 -12 26 -29
7z"/>
<path d="M1247 693 c-15 -15 -6 -33 17 -33 20 0 36 16 36 36 0 7 -46 5 -53 -3z"/>
<path d="M1320 679 c0 -15 5 -20 22 -17 34 5 37 38 4 38 -20 0 -26 -5 -26 -21z"/>
<path d="M790 610 c0 -15 7 -20 28 -20 66 -1 67 -50 1 -60 -51 -8 -45 -34 9
-38 33 -3 42 -7 42 -22 0 -10 3 -25 6 -34 5 -12 -2 -14 -40 -11 -46 5 -47 4
-46 -32 0 -5 15 -7 33 -5 17 2 42 3 54 3 29 -1 37 13 21 38 -9 15 -9 23 2 36
11 13 11 18 1 24 -14 9 -14 17 1 44 6 13 5 23 -3 35 -11 14 -11 15 1 5 36 -32
41 -3 5 32 -18 19 -35 25 -70 25 -38 0 -45 -3 -45 -20z"/>
<path d="M952 554 c1 -56 6 -75 17 -79 14 -6 14 -8 -1 -16 -23 -13 -23 -25 1
-32 36 -9 42 6 40 104 l-1 94 -30 1 -29 1 3 -73z"/>
<path d="M1025 620 c-8 -12 11 -28 43 -35 18 -4 36 -13 39 -21 8 -22 -16 -44
-49 -44 -17 0 -31 -6 -35 -15 -8 -23 -2 -25 61 -29 53 -3 70 4 45 19 -6 5 -4
12 7 20 23 16 29 79 7 71 -11 -5 -13 -2 -9 10 5 13 2 15 -13 11 -14 -3 -18 -1
-14 10 4 11 -3 13 -36 11 -23 -1 -44 -5 -46 -8z"/>
<path d="M1244 614 c-61 -30 -84 -123 -34 -139 11 -4 18 -10 15 -15 -3 -5 -12
-7 -20 -3 -26 9 -16 -14 16 -41 33 -28 49 -32 66 -15 7 7 2 19 -18 39 -16 16
-29 36 -29 44 0 9 -8 16 -20 16 -11 0 -20 5 -20 11 0 6 8 8 19 4 15 -5 21 0
26 23 3 17 16 34 30 40 15 7 25 20 25 32 0 24 -14 25 -56 4z"/>
<path d="M1320 610 c0 -10 9 -24 20 -30 11 -6 26 -23 34 -38 9 -15 15 -21 16
-14 0 6 9 12 20 12 11 0 20 3 20 8 0 19 -35 55 -66 68 -43 18 -44 18 -44 -6z"/>
<path d="M1451 506 c0 -112 2 -124 17 -121 9 2 20 4 24 4 4 1 7 55 7 121 l1
120 -25 0 -24 0 0 -124z"/>
<path d="M1520 610 c0 -15 7 -20 24 -20 39 0 56 -25 56 -84 0 -60 -17 -83 -56
-78 -20 3 -24 -1 -24 -23 0 -27 1 -27 48 -20 64 9 76 23 82 99 9 112 -13 146
-95 146 -28 0 -35 -4 -35 -20z"/>
<path d="M1694 612 c-9 -14 -8 -22 2 -36 7 -11 11 -23 7 -29 -4 -6 -1 -7 7 -2
9 5 10 2 5 -14 -4 -12 -2 -21 4 -21 7 0 11 24 11 60 0 62 -14 78 -36 42z"/>
<path d="M1745 620 c-13 -21 8 -30 66 -30 52 0 59 2 59 20 0 18 -7 20 -59 20
-33 0 -63 -4 -66 -10z"/>
<path d="M1935 594 c-8 -20 -20 -55 -27 -77 -6 -23 -15 -46 -18 -52 -4 -5 -10
-27 -14 -47 -6 -32 -4 -38 11 -38 30 0 37 12 61 90 35 112 33 109 47 70 19
-50 18 -58 -7 -62 -13 -2 -24 -11 -26 -20 -3 -14 4 -18 31 -18 30 0 37 -4 46
-30 8 -25 15 -30 41 -30 18 0 30 4 28 8 -1 5 -23 61 -48 125 -44 116 -45 117
-77 117 -28 0 -35 -5 -48 -36z"/>
<path d="M2120 610 c0 -15 7 -20 29 -20 35 0 61 -9 61 -20 0 -18 -33 -40 -61
-40 -22 0 -29 -5 -29 -19 0 -16 8 -20 42 -23 35 -2 43 -7 48 -27 l6 -24 17 26
c10 15 14 27 10 27 -5 0 -13 11 -20 25 -6 14 -7 23 -2 19 20 -12 30 8 13 27
-19 21 -6 27 15 7 10 -11 12 -8 9 12 -4 31 -40 50 -95 50 -36 0 -43 -3 -43
-20z"/>
<path d="M2291 557 c2 -52 6 -75 18 -84 14 -11 14 -12 -1 -13 -25 0 -23 -26 2
-33 27 -7 35 8 37 78 4 96 -3 120 -33 123 -25 2 -25 1 -23 -71z"/>
<path d="M2360 621 c1 -16 18 -29 47 -36 40 -8 47 -18 33 -45 -8 -14 -21 -20
-45 -20 -28 0 -35 -4 -35 -20 0 -20 5 -21 79 -25 13 0 29 -9 37 -20 19 -26 18
-5 -1 22 -14 21 -14 24 5 43 12 12 19 28 16 37 -3 8 -6 19 -6 24 0 6 -4 7 -10
4 -5 -3 -10 0 -10 8 0 7 -10 19 -22 25 -23 12 -88 14 -88 3z"/>
<path d="M2518 583 c-5 -72 1 -115 15 -106 7 4 5 -4 -3 -17 -22 -35 -15 -72
13 -68 18 2 23 11 25 42 2 24 -2 42 -10 48 -10 8 -10 11 0 15 8 3 12 27 12 69
0 61 -1 64 -24 64 -22 0 -24 -5 -28 -47z"/>
<path d="M2590 505 l0 -125 30 0 30 0 0 125 0 125 -30 0 -30 0 0 -125z"/>
<path d="M2702 587 c-59 -60 -57 -88 11 -155 37 -37 60 -52 80 -52 15 0 27 3
27 7 0 4 -28 35 -61 69 l-61 62 38 35 c22 19 50 44 64 56 l25 20 -40 1 c-35 0
-47 -6 -83 -43z"/>
<path d="M2860 611 c-7 -14 -7 -22 1 -27 6 -3 9 -17 6 -30 -2 -14 0 -21 6 -17
6 3 7 1 3 -5 -3 -6 -2 -13 3 -16 13 -9 18 14 13 67 -4 50 -15 59 -32 28z"/>
<path d="M2910 610 c0 -18 7 -20 60 -20 53 0 60 2 60 20 0 18 -7 20 -60 20
-53 0 -60 -2 -60 -20z"/>
<path d="M3060 621 c0 -5 15 -25 34 -46 26 -28 38 -35 50 -28 24 13 -26 83
-59 83 -14 0 -25 -4 -25 -9z"/>
<path d="M3214 560 c3 -49 11 -81 26 -105 12 -19 24 -35 26 -35 2 0 4 47 4
105 l0 105 -30 0 -30 0 4 -70z"/>
<path d="M3050 578 c0 -16 4 -28 9 -28 18 0 20 17 6 36 -14 18 -14 18 -15 -8z"/>
<path d="M1671 470 c2 -58 4 -68 15 -59 8 6 14 8 14 4 0 -4 6 -3 13 3 7 6 14
27 15 47 3 34 1 35 -25 30 -18 -3 -22 -3 -10 3 16 7 16 9 -3 25 -21 17 -21 17
-19 -53z"/>
<path d="M1778 532 c-39 -10 -40 -12 -24 -27 10 -11 30 -15 58 -13 35 3 43 7
43 23 0 16 -7 20 -32 20 -18 0 -39 -1 -45 -3z"/>
<path d="M2948 532 c-39 -11 -41 -12 -28 -27 8 -9 28 -14 56 -13 38 2 44 5 42
22 -3 19 -35 27 -70 18z"/>
<path d="M3143 533 c-22 -4 -20 -8 27 -79 41 -60 55 -74 76 -74 l26 0 -18 28
c-48 74 -87 132 -88 131 -1 -1 -11 -4 -23 -6z"/>
<path d="M87 524 c-3 -3 -3 -12 0 -20 4 -12 57 -14 304 -14 292 0 299 0 299
20 0 20 -7 20 -298 20 -164 0 -301 -3 -305 -6z"/>
<path d="M2840 462 c0 -48 3 -63 10 -52 9 13 12 12 25 -4 8 -11 18 -16 22 -12
4 4 3 10 -3 14 -6 4 -8 16 -4 26 3 11 5 30 2 43 -3 18 -9 22 -26 18 -11 -2
-15 -2 -8 1 16 8 15 21 -3 28 -12 4 -15 -6 -15 -62z"/>
<path d="M3360 510 c0 -20 7 -20 299 -20 247 0 300 2 304 14 3 8 3 17 0 20 -4
3 -141 6 -305 6 -291 0 -298 0 -298 -20z"/>
<path d="M3052 453 c3 -66 4 -68 31 -71 l27 -3 0 70 0 71 -30 0 -31 0 3 -67z"/>
<path d="M1393 504 c7 -7 -6 -24 -46 -64 -16 -15 -27 -35 -25 -43 3 -15 7 -14
43 2 59 26 92 111 43 111 -12 0 -19 -3 -15 -6z"/>
<path d="M912 460 c-16 -26 -15 -30 3 -30 9 0 15 9 15 25 0 30 -2 31 -18 5z"/>
<path d="M2251 462 c-14 -26 -7 -42 10 -25 6 6 9 19 7 29 -3 17 -5 17 -17 -4z"/>
<path d="M3417 469 c-53 -13 -99 -38 -94 -52 3 -8 24 -11 58 -10 l54 2 -25
-19 c-29 -23 -24 -29 55 -59 82 -31 115 -35 115 -16 0 49 -66 111 -107 100
-10 -3 -2 2 17 10 51 22 61 29 63 40 3 13 -88 16 -136 4z m118 -9 c-12 -19
-205 -56 -205 -39 0 7 68 32 115 42 39 9 96 7 90 -3z"/>
<path d="M2122 407 c2 -18 9 -22 41 -22 20 0 37 3 37 8 0 4 4 6 9 3 14 -9 42
5 38 17 -2 6 -32 12 -66 14 -59 2 -62 1 -59 -20z"/>
<path d="M2920 421 c0 -15 29 -33 45 -27 8 3 15 2 15 -3 0 -4 12 -8 27 -7 19
1 27 7 28 21 1 18 -5 20 -57 22 -32 1 -58 -1 -58 -6z"/>
<path d="M3778 422 c-25 -3 -41 -22 -19 -22 10 0 3 -87 -9 -109 -6 -11 -15 0
-34 37 -29 58 -31 66 -13 56 9 -5 9 -4 0 6 -7 7 -22 10 -36 6 l-24 -6 19 -67
c10 -38 17 -82 14 -99 -4 -28 -2 -30 24 -26 27 4 28 6 16 26 -15 22 -31 86
-23 86 3 0 15 -19 26 -41 12 -23 28 -48 36 -56 13 -13 15 -10 16 24 1 21 4 52
8 68 6 27 8 28 14 9 4 -12 8 -37 9 -56 1 -32 3 -34 35 -34 34 1 44 12 18 22
-15 6 -51 146 -41 163 8 13 -4 17 -36 13z"/>
<path d="M1115 411 c-3 -5 -1 -12 5 -16 5 -3 10 -1 10 6 0 8 5 7 18 -2 15 -13
16 -12 3 4 -15 19 -27 22 -36 8z"/>
<path d="M2450 410 c0 -5 4 -10 9 -10 5 0 18 -3 28 -7 16 -6 16 -5 4 10 -15
19 -41 23 -41 7z"/>
<path d="M1715 400 c-3 -5 -1 -10 4 -10 6 0 11 5 11 10 0 6 -2 10 -4 10 -3 0
-8 -4 -11 -10z"/>
<path d="M3356 327 c-22 -33 -30 -105 -17 -154 32 -117 189 -128 221 -15 20
72 11 132 -20 132 -15 0 -18 -12 -22 -75 -6 -89 -24 -118 -72 -113 -19 2 -30
8 -28 16 1 8 -2 11 -8 7 -26 -16 -35 86 -18 199 4 28 -19 31 -36 3z"/>
<path d="M3406 305 c-3 -9 -6 -24 -5 -33 0 -9 5 -4 10 12 9 32 6 48 -5 21z"/>
<path d="M3123 283 c-24 -5 -28 -13 -14 -28 9 -11 36 -131 34 -155 -1 -12 7
-15 38 -12 21 2 39 9 39 14 0 6 6 8 14 5 8 -3 20 2 28 11 7 8 8 13 2 9 -8 -5
-10 6 -7 37 4 28 0 53 -11 74 -25 48 -54 58 -123 45z m74 -23 c29 0 44 -118
18 -140 -26 -21 -42 -4 -54 60 -7 34 -15 69 -18 78 -5 12 -1 14 18 9 13 -4 29
-7 36 -7z"/>
<path d="M3864 269 c-7 -12 21 -39 40 -39 7 0 8 3 1 8 -5 4 -10 13 -10 21 0
19 -21 25 -31 10z"/>
<path d="M3582 220 c-3 -87 -27 -121 -112 -159 -24 -11 -24 -11 5 -6 74 14
118 80 112 167 l-3 53 -2 -55z"/>
<path d="M3391 209 c0 -19 4 -43 9 -54 6 -13 7 -2 3 30 -7 59 -13 72 -12 24z"/>
<path d="M3614 216 c-7 -18 13 -49 26 -41 10 6 1 43 -11 51 -5 3 -12 -2 -15
-10z"/>
<path d="M3284 147 c-6 -17 2 -37 16 -37 15 0 19 29 5 40 -12 10 -16 9 -21 -3z"/>
</g>
</svg>
